<svg width="120" height="110" viewBox="0 0 120 110" fill="none" xmlns="http://www.w3.org/2000/svg">
<path d="M21.751 29.787L40.873 37.658C47.464 20.396 57.018 7.112 66.905 0.885998C48.949 -0.149002 31.551 8.711 20.361 24.554C20.0727 24.9788 19.879 25.4605 19.793 25.9666C19.707 26.4727 19.7307 26.9914 19.8625 27.4875C19.9943 27.9837 20.2311 28.4457 20.5569 28.8424C20.8827 29.2392 21.2899 29.5613 21.751 29.787ZM46.518 39.987L91.179 58.364C97.879 32.664 94.679 9.322 83.195 4.597C81.8236 4.03233 80.3541 3.74448 78.871 3.75C68.005 3.75 54.849 18.393 46.517 39.982L46.518 39.987ZM97.803 13.614C99.0624 17.4037 99.8916 21.323 100.275 25.298C101.35 35.86 100.009 48.21 96.726 60.647L115.943 68.556C116.412 68.7195 116.913 68.7658 117.404 68.6909C117.894 68.616 118.359 68.4221 118.758 68.1262C119.156 67.8303 119.476 67.4414 119.69 66.9934C119.903 66.5453 120.004 66.0519 119.983 65.556C120.417 45.299 112.134 25.875 97.802 13.614H97.803ZM105.017 95.643H60.27L72.431 57.859L61.168 53.222L47.516 95.64H3.14301C2.2967 95.6941 1.50617 96.0808 0.944078 96.7158C0.381981 97.3508 0.0939914 98.1824 0.143005 99.029V105.805C0.094258 106.652 0.382341 107.483 0.944385 108.118C1.50643 108.753 2.2968 109.14 3.14301 109.194H105.017C105.863 109.14 106.654 108.753 107.216 108.118C107.778 107.483 108.066 106.652 108.017 105.805V99.03C108.066 98.1837 107.778 97.3524 107.215 96.7178C106.653 96.0832 105.863 95.6968 105.017 95.643Z" fill="#333333"/>
</svg>
