<svg width="93" height="95" viewBox="0 0 93 95" fill="none" xmlns="http://www.w3.org/2000/svg">
<path d="M52.622 31.419C48.991 31.419 33.404 31.808 23.37 48.292V31.419C23.37 21.026 15.623 12.573 6.098 12.573C4.50199 12.6459 2.99994 13.3484 1.92088 14.5266C0.841817 15.7049 0.273708 17.2627 0.340995 18.859C0.274794 20.4546 0.84339 22.0114 1.92234 23.1887C3.00129 24.3661 4.50271 25.068 6.098 25.141C7.69264 25.2157 9.19296 25.9182 10.2715 27.0952C11.3501 28.2721 11.9193 29.8279 11.855 31.423V81.676C11.855 88.606 17.019 94.24 23.369 94.24H55.035C55.8328 94.2039 56.5838 93.853 57.1235 93.2643C57.6631 92.6756 57.9474 91.8969 57.914 91.099V87.959C57.9802 86.3634 57.4116 84.8066 56.3327 83.6292C55.2537 82.4519 53.7523 81.7499 52.157 81.677H46.399L69.428 62.83V91.099C69.3946 91.8969 69.6789 92.6756 70.2185 93.2643C70.7582 93.853 71.5092 94.2039 72.307 94.24H78.064C78.8615 94.2034 79.612 93.8523 80.1512 93.2636C80.6904 92.6749 80.9744 91.8966 80.941 91.099V50.631C79.0726 51.1936 77.135 51.4935 75.184 51.522C64.065 51.522 54.761 42.874 52.622 31.419ZM80.941 12.573H69.428L57.913 0.00897217V26.394C57.913 36.803 65.646 45.24 75.185 45.24C84.724 45.24 92.457 36.802 92.457 26.394V0.00897217L80.941 12.573ZM67.989 28.278C67.3561 28.3332 66.7213 28.1959 66.1678 27.8842C65.6142 27.5724 65.1677 27.1007 64.8869 26.5309C64.606 25.961 64.5038 25.3197 64.5937 24.6908C64.6836 24.0618 64.9614 23.4748 65.3907 23.0064C65.8199 22.5381 66.3806 22.2104 66.9994 22.0662C67.6181 21.922 68.2659 21.9681 68.858 22.1984C69.4501 22.4287 69.9588 22.8325 70.3175 23.3568C70.6761 23.8812 70.868 24.5017 70.868 25.137C70.9014 25.9349 70.6171 26.7136 70.0775 27.3023C69.5378 27.891 68.7868 28.2419 67.989 28.278ZM82.382 28.278C81.7491 28.3332 81.1143 28.1959 80.5608 27.8842C80.0072 27.5724 79.5608 27.1007 79.2799 26.5309C78.999 25.961 78.8968 25.3197 78.9867 24.6908C79.0766 24.0618 79.3544 23.4748 79.7837 23.0064C80.2129 22.5381 80.7737 22.2104 81.3924 22.0662C82.0111 21.922 82.6589 21.9681 83.251 22.1984C83.8431 22.4287 84.3518 22.8325 84.7104 23.3568C85.0691 23.8812 85.261 24.5017 85.261 25.137C85.2944 25.9349 85.0101 26.7136 84.4705 27.3023C83.9308 27.891 83.1798 28.2419 82.382 28.278Z" fill="#333333"/>
</svg>
